<svg width="42" height="42" viewBox="0 0 42 42" fill="none" xmlns="http://www.w3.org/2000/svg">
<circle cx="21" cy="21" r="21" fill="#080B3A"/>
<path d="M20.8283 34.1337C16.6275 34.1337 13.2589 31.4332 12.0304 27.1044C10.366 21.3855 12.6249 13.125 21.3435 7.60477L22.572 6.8502V8.27991C22.572 13.2045 24.5535 16.0241 26.4558 18.7247C28.0013 20.909 29.4676 23.0138 29.4676 25.8732C29.428 29.9638 26.4954 34.1337 20.8283 34.1337ZM21.0661 9.74933C13.9723 14.7533 12.1097 21.7827 13.5364 26.6675C14.6064 30.3212 17.3012 32.5055 20.8283 32.5055C25.6632 32.5055 27.8428 29.0504 27.8428 25.8732C27.8428 23.4904 26.5747 21.7033 25.148 19.6381C23.3646 17.1361 21.3831 14.3164 21.0661 9.74933Z" fill="#4DD9F6"/>
<path d="M19.2435 33.8558C18.8076 33.8558 18.4113 33.8161 17.9753 33.6969L18.3716 32.1481C19.6002 32.4658 20.8287 32.0687 21.542 31.0758C22.6517 29.5667 22.4139 27.2633 20.908 24.8407C17.1431 18.8439 17.2224 12.9265 21.1854 7.80339L22.4535 8.75653C18.8868 13.4031 18.8472 18.5262 22.295 24.0067C24.1576 26.9853 24.3954 29.9638 22.8895 32.029C21.9383 33.1807 20.6306 33.8558 19.2435 33.8558Z" fill="#4DD9F6"/>
</svg>
